<svg xmlns="http://www.w3.org/2000/svg" width="38.78" height="23.826" viewBox="0 0 38.78 23.826">
  <g id="Group_19229" data-name="Group 19229" transform="translate(0.5 0.5)">
    <rect id="Rectangle_7686" data-name="Rectangle 7686" width="37.78" height="22.826" rx="4" transform="translate(0 0)" fill="none" stroke="#464d52" stroke-width="1"/>
    <g id="Group_19227" data-name="Group 19227" transform="translate(7.806 6.707)">
      <g id="Group_19220" data-name="Group 19220" transform="translate(0 0)">
        <path id="Path_12775" data-name="Path 12775" d="M203.818,175.614a.685.685,0,1,0-.728-.633,1.572,1.572,0,0,0-.4,1.17,1.412,1.412,0,0,0,1.127-.537" transform="translate(-199.626 -174.4)" fill="#010202"/>
        <path id="Path_12776" data-name="Path 12776" d="M172.011,195.477c-.624-.035-1.153.355-1.448.355s-.754-.338-1.248-.329a1.823,1.823,0,0,0-1.56.954,3.924,3.924,0,0,0,.477,3.806c.321.468.7.98,1.2.962.477-.017.659-.3,1.24-.3s.745.3,1.248.295c.52-.009.85-.468,1.162-.928a3.922,3.922,0,0,0,.52-1.075,1.687,1.687,0,0,1-1.014-1.534,1.728,1.728,0,0,1,.824-1.448,1.8,1.8,0,0,0-1.4-.754" transform="translate(-167.437 -193.648)" fill="#010202"/>
      </g>
      <g id="Group_19221" data-name="Group 19221" transform="translate(8.18 0.529)">
        <path id="Path_12777" data-name="Path 12777" d="M264.418,180.5a2.3,2.3,0,1,1-.035,4.6h-1.5v2.384H261.8V180.5Zm-1.534,3.693h1.248a1.39,1.39,0,1,0,.009-2.774h-1.248C262.884,181.419,262.884,184.193,262.884,184.193Z" transform="translate(-261.8 -180.5)" fill="#010202"/>
        <path id="Path_12778" data-name="Path 12778" d="M321.6,205.676c0-.893.685-1.413,1.942-1.482l1.352-.078v-.39c0-.563-.373-.876-1.04-.876a.943.943,0,0,0-1.023.711h-.98c.026-.9.884-1.56,2.037-1.56,1.24,0,2.046.65,2.046,1.656v3.476h-1.006v-.841H324.9a1.793,1.793,0,0,1-1.6.893A1.544,1.544,0,0,1,321.6,205.676Zm3.294-.451v-.39l-1.2.078c-.676.043-1.032.295-1.032.737,0,.425.364.7.945.7A1.181,1.181,0,0,0,324.894,205.225Z" transform="translate(-316.416 -200.136)" fill="#010202"/>
        <path id="Path_12779" data-name="Path 12779" d="M376.9,209.544V208.7c.069.009.234.017.321.017a.866.866,0,0,0,.919-.728l.1-.312L376.4,202.6h1.136l1.274,4.126h.026l1.274-4.126h1.11l-1.907,5.34c-.433,1.222-.936,1.63-1.994,1.63A3.352,3.352,0,0,1,376.9,209.544Z" transform="translate(-366.466 -200.684)" fill="#010202"/>
      </g>
    </g>
  </g>
</svg>
