<svg xmlns="http://www.w3.org/2000/svg" xmlns:xlink="http://www.w3.org/1999/xlink" width="38.78" height="23.826" viewBox="0 0 38.78 23.826">
  <defs>
    <clipPath id="clip-path">
      <rect id="Rectangle_7685" data-name="Rectangle 7685" width="23.7" height="9.414" fill="none"/>
    </clipPath>
  </defs>
  <g id="Group_19225" data-name="Group 19225" transform="translate(0.5 0.5)">
    <g id="Group_19224" data-name="Group 19224">
      <rect id="Rectangle_7686" data-name="Rectangle 7686" width="37.78" height="22.826" rx="4" transform="translate(0 0)" fill="none" stroke="#464d52" stroke-width="1"/>
      <g id="Group_19223" data-name="Group 19223" transform="translate(7.04 6.705)" clip-path="url(#clip-path)">
        <path id="Path_12780" data-name="Path 12780" d="M307.859,20.2v2.761h-.875V16.142H309.3a2.11,2.11,0,0,1,1.506.592,1.879,1.879,0,0,1,.625,1.435,1.9,1.9,0,0,1-.625,1.446,2.1,2.1,0,0,1-1.5.582Zm0-3.218v2.381h1.468a1.144,1.144,0,0,0,.864-.353,1.16,1.16,0,0,0,.022-1.641l-.022-.022a1.13,1.13,0,0,0-.864-.359Zm5.593,1.163a2.188,2.188,0,0,1,1.533.516,1.843,1.843,0,0,1,.56,1.424v2.87h-.837v-.647h-.038a1.672,1.672,0,0,1-1.446.8,1.877,1.877,0,0,1-1.288-.457,1.442,1.442,0,0,1-.516-1.141,1.392,1.392,0,0,1,.549-1.152,2.294,2.294,0,0,1,1.462-.429,2.637,2.637,0,0,1,1.283.283v-.2a1,1,0,0,0-.359-.772,1.272,1.272,0,0,0-.842-.321,1.347,1.347,0,0,0-1.163.62l-.772-.484A2.134,2.134,0,0,1,313.452,18.142Zm-1.131,3.386a.705.705,0,0,0,.288.571,1.069,1.069,0,0,0,.679.228,1.391,1.391,0,0,0,.984-.408,1.283,1.283,0,0,0,.435-.962,1.783,1.783,0,0,0-1.141-.326,1.514,1.514,0,0,0-.891.255.777.777,0,0,0-.353.641m8.028-3.234-2.924,6.718h-.9l1.087-2.348L315.686,18.3h.951l1.386,3.348h.022L319.4,18.3Z" transform="translate(-296.65 -15.598)" fill="#464d52"/>
        <path id="Path_12781" data-name="Path 12781" d="M120.051,96.065a4.834,4.834,0,0,0-.065-.794h-3.691v1.506h2.114a1.812,1.812,0,0,1-.783,1.19v.978h1.261A3.818,3.818,0,0,0,120.051,96.065Z" transform="translate(-112.38 -92.064)" fill="#2d6ab3"/>
        <path id="Path_12782" data-name="Path 12782" d="M15.968,141.706a3.743,3.743,0,0,0,2.593-.946l-1.261-.978a2.371,2.371,0,0,1-3.528-1.239h-1.3v1.011a3.919,3.919,0,0,0,3.495,2.152" transform="translate(-12.053 -133.879)" fill="#3ea34c"/>
        <path id="Path_12783" data-name="Path 12783" d="M1.719,66.614a2.361,2.361,0,0,1,0-1.5V64.108H.42a3.88,3.88,0,0,0,0,3.511Z" transform="translate(0 -61.95)" fill="#ffaa13"/>
        <path id="Path_12784" data-name="Path 12784" d="M15.968,1.549a2.106,2.106,0,0,1,1.5.587l1.114-1.114A3.736,3.736,0,0,0,15.968,0a3.914,3.914,0,0,0-3.495,2.158l1.3,1.011a2.34,2.34,0,0,1,2.2-1.62" transform="translate(-12.053 0)" fill="#ea3730"/>
      </g>
    </g>
  </g>
</svg>
